<?xml version="1.0" encoding="UTF-8" standalone="no"?>
<svg
   xmlns:dc="http://purl.org/dc/elements/1.1/"
   xmlns:cc="http://creativecommons.org/ns#"
   xmlns:rdf="http://www.w3.org/1999/02/22-rdf-syntax-ns#"
   xmlns:svg="http://www.w3.org/2000/svg"
   xmlns="http://www.w3.org/2000/svg"
   width="58.979565"
   height="58.979462"
   viewBox="0 0 15.605009 15.604983"
   version="1.1"
   id="svg8">
  <defs
     id="defs2" />
  <metadata
     id="metadata5">
    <rdf:RDF>
      <cc:Work
         rdf:about="">
        <dc:format>image/svg+xml</dc:format>
        <dc:type
           rdf:resource="http://purl.org/dc/dcmitype/StillImage" />
        <dc:title></dc:title>
      </cc:Work>
    </rdf:RDF>
  </metadata>
  <g
     id="layer1"
     transform="translate(-69.382197,-126.31036)">
    <text
       xml:space="preserve"
       style="font-size:10.5833px;line-height:1.25;font-family:Crackwhore;-inkscape-font-specification:Crackwhore;stroke-width:0.264583"
       x="30.022161"
       y="65.255455"
       id="text859"><tspan
         id="tspan857"
         x="30.022161"
         y="65.255455"
         style="stroke-width:0.264583"></tspan></text>
    <g
       aria-label="lll"
       id="text863"
       style="font-size:10.5833px;line-height:1.25;font-family:'Yard Sale';-inkscape-font-specification:'Yard Sale';stroke-width:0.264583">
      <path
         d="m 82.49334,141.22357 q 0.231987,0.11224 0.486427,0.0673 0.254442,-0.0449 0.486432,-0.14219 0.02993,-0.0299 0.09729,-0.0973 0.06735,-0.0674 0.142186,-0.14219 0.08982,-0.0748 0.157166,-0.14218 0.06735,-0.0674 0.09729,-0.0973 0.179604,-0.17961 0.419078,-0.41908 0.246968,-0.23198 0.419088,-0.4939 0.164626,-0.26942 0.187088,-0.5463 0.02246,-0.27688 -0.231983,-0.53132 -1.414391,-1.41439 -2.896126,-2.82129 -1.481742,-1.42188 -2.881163,-2.79136 -0.07483,-0.0748 -0.224499,-0.20953 -0.157155,-0.1422 -0.344248,-0.31431 -0.194568,-0.17961 -0.396623,-0.36669 -0.202056,-0.18709 -0.381668,-0.35173 -0.179599,-0.16463 -0.321791,-0.29185 -0.134703,-0.1347 -0.202055,-0.18709 -1.324586,-1.11505 -2.664135,-2.18519 -1.347031,-1.07762 -2.649163,-2.23009 -0.03746,-0.008 -0.127258,-0.008 -0.0898,0 -0.19457,0 -0.104779,-1e-5 -0.202055,0.0225 -0.104772,0.015 -0.14967,0.0599 -0.02993,0.0299 -0.142188,0.14218 -0.104769,0.10477 -0.231989,0.23199 -0.127219,0.12722 -0.239473,0.23948 -0.104769,0.10477 -0.134703,0.1347 -0.08981,0.0748 -0.172098,0.11228 -0.08236,0.0374 -0.179616,0.0748 -0.08978,0.03 -0.179616,0.0748 -0.08236,0.0374 -0.15719,0.11222 -0.06735,0.0674 -0.142163,0.17214 -0.07481,0.1048 -0.119725,0.22452 -0.03743,0.11224 -0.03742,0.23199 1.4e-5,0.10478 0.0898,0.19457 l 3.217916,3.21791 q 0.269405,0.10477 0.516362,0.35173 0.239476,0.23947 0.419081,0.41908 0.05989,0.0599 0.149666,0.14966 0.0898,0.0898 0.172124,0.18709 0.0898,0.0898 0.164636,0.16464 0.06732,0.0673 0.07484,0.0748 0.01499,0.015 0.06735,0.0973 0.05983,0.0748 0.119741,0.16464 0.05986,0.0898 0.112253,0.17212 0.05984,0.0748 0.07484,0.0898 0.01499,0.015 0.0898,0.0748 0.08236,0.0524 0.164636,0.11973 0.08981,0.0599 0.172124,0.11226 0.08229,0.0523 0.09728,0.0674 0.03741,0.0374 0.224507,0.20954 0.187093,0.15715 0.411593,0.36669 0.224506,0.19457 0.441531,0.39663 0.224507,0.19457 0.344241,0.29934 0.710932,0.65107 1.376963,1.33206 0.658557,0.67352 1.39194,1.28718 0.434043,0.3592 0.838155,0.70345 0.411592,0.33675 0.808223,0.68848 0.389142,0.34424 0.778284,0.71842 0.389135,0.37417 0.793254,0.80822 z"
         style="stroke-width:0.264583"
         id="path865" />
      <path
         d="m 70.07429,139.42145 q -0.112246,0.23199 -0.06735,0.48643 0.0449,0.25444 0.142183,0.48643 0.02993,0.0299 0.09729,0.0973 0.06735,0.0674 0.142187,0.14219 0.07482,0.0898 0.142175,0.15717 0.06735,0.0674 0.09729,0.0973 0.179605,0.17961 0.419077,0.41908 0.231978,0.24697 0.493901,0.41909 0.269419,0.16463 0.546298,0.18709 0.276886,0.0224 0.531324,-0.23199 1.41439,-1.41439 2.821285,-2.89612 1.421879,-1.48174 2.791361,-2.88117 0.07483,-0.0748 0.209537,-0.22449 0.142192,-0.15716 0.314309,-0.34425 0.179605,-0.19457 0.366684,-0.39663 0.187093,-0.20205 0.351729,-0.38166 0.164636,-0.1796 0.291851,-0.32179 0.134704,-0.13471 0.187094,-0.20206 1.115046,-1.32458 2.185189,-2.66413 1.077624,-1.34704 2.230086,-2.64917 0.0075,-0.0375 0.0075,-0.12726 0,-0.0898 -2e-6,-0.19456 1.5e-5,-0.10478 -0.02245,-0.20206 -0.01497,-0.10477 -0.05987,-0.14967 -0.02993,-0.0299 -0.142187,-0.14219 -0.10477,-0.10477 -0.231989,-0.23199 -0.12722,-0.12722 -0.239473,-0.23947 -0.10477,-0.10477 -0.134704,-0.1347 -0.07482,-0.0898 -0.112276,-0.1721 -0.03739,-0.0824 -0.07482,-0.17962 -0.02996,-0.0898 -0.07482,-0.17961 -0.03739,-0.0824 -0.112218,-0.15719 -0.06735,-0.0674 -0.172144,-0.14217 -0.104793,-0.0748 -0.224518,-0.11972 -0.112241,-0.0374 -0.231987,-0.0374 -0.104779,1e-5 -0.194568,0.0898 l -3.217916,3.21792 q -0.104767,0.2694 -0.351724,0.51636 -0.239476,0.23948 -0.419081,0.41908 -0.05989,0.0599 -0.149667,0.14967 -0.0898,0.0898 -0.187086,0.17212 -0.0898,0.0898 -0.164636,0.16464 -0.06732,0.0673 -0.07484,0.0748 -0.01499,0.015 -0.09728,0.0673 -0.0748,0.0598 -0.164643,0.11974 -0.0898,0.0599 -0.172117,0.11226 -0.0748,0.0598 -0.0898,0.0748 -0.01499,0.015 -0.07483,0.0898 -0.05242,0.0824 -0.119734,0.16464 -0.05987,0.0898 -0.11226,0.17212 -0.05235,0.0823 -0.06735,0.0973 -0.03741,0.0374 -0.209544,0.22451 -0.157155,0.18709 -0.366692,0.41159 -0.194567,0.22451 -0.39663,0.44154 -0.194568,0.2245 -0.29934,0.34424 -0.651068,0.71093 -1.332061,1.37696 -0.67352,0.65856 -1.287175,1.39194 -0.359203,0.43404 -0.703451,0.83815 -0.336753,0.4116 -0.688482,0.80823 -0.344241,0.38914 -0.71842,0.77828 -0.374173,0.38914 -0.808216,0.79325 z"
         style="stroke-width:0.264583"
         id="path869" />
    </g>
  </g>
</svg>
