<?xml version="1.0" encoding="UTF-8" standalone="no"?>
<svg
   xmlns:dc="http://purl.org/dc/elements/1.1/"
   xmlns:cc="http://creativecommons.org/ns#"
   xmlns:rdf="http://www.w3.org/1999/02/22-rdf-syntax-ns#"
   xmlns:svg="http://www.w3.org/2000/svg"
   xmlns="http://www.w3.org/2000/svg"
   width="52.119839"
   height="71.685799"
   viewBox="0 0 13.79004 18.966868"
   version="1.1"
   id="svg8">
  <defs
     id="defs2" />
  <metadata
     id="metadata5">
    <rdf:RDF>
      <cc:Work
         rdf:about="">
        <dc:format>image/svg+xml</dc:format>
        <dc:type
           rdf:resource="http://purl.org/dc/dcmitype/StillImage" />
        <dc:title></dc:title>
      </cc:Work>
    </rdf:RDF>
  </metadata>
  <g
     id="layer1"
     transform="translate(-64.230162,-125.8251)">
    <text
       xml:space="preserve"
       style="font-size:10.5833px;line-height:1.25;font-family:Crackwhore;-inkscape-font-specification:Crackwhore;stroke-width:0.264583"
       x="30.022161"
       y="65.255455"
       id="text859"><tspan
         id="tspan857"
         x="30.022161"
         y="65.255455"
         style="stroke-width:0.264583"></tspan></text>
    <g
       aria-label="lll"
       id="text863"
       style="font-size:10.5833px;line-height:1.25;font-family:'Yard Sale';-inkscape-font-specification:'Yard Sale';stroke-width:0.264583">
      <path
         d="m 64.759338,144.14485 q 0.08467,0.24341 0.296332,0.39158 0.211666,0.14817 0.444499,0.24342 0.04233,0 0.137583,0 0.09525,0 0.201082,0 0.116417,0.0106 0.211666,0.0106 0.09525,0 0.137583,0 0.253999,0 0.592665,0 0.338666,0.0106 0.645581,-0.0529 0.306916,-0.0741 0.518582,-0.254 0.211666,-0.17991 0.211666,-0.53974 0,-2.00025 -0.05292,-4.04282 -0.04233,-2.05317 -0.0635,-4.01108 0,-0.10583 -0.01058,-0.30691 -0.01058,-0.21167 -0.02117,-0.46567 -0.01058,-0.26458 -0.02117,-0.53974 -0.01058,-0.27517 -0.02117,-0.51859 -0.01058,-0.24341 -0.02117,-0.43391 0,-0.1905 -0.01058,-0.27517 -0.148167,-1.72508 -0.338666,-3.42899 -0.190499,-1.71449 -0.296332,-3.45015 -0.02117,-0.0318 -0.08467,-0.0953 -0.0635,-0.0635 -0.137583,-0.13758 -0.07408,-0.0741 -0.158749,-0.127 -0.08467,-0.0635 -0.148166,-0.0635 -0.04233,0 -0.201083,0 -0.148166,0 -0.328082,0 -0.179916,0 -0.338666,0 -0.148166,0 -0.190499,0 -0.116417,-0.0106 -0.201083,-0.0423 -0.08467,-0.0318 -0.179916,-0.0741 -0.08467,-0.0423 -0.179916,-0.0741 -0.08467,-0.0318 -0.1905,-0.0318 -0.09525,0 -0.222249,0.0212 -0.127,0.0212 -0.243416,0.0741 -0.105833,0.0529 -0.190499,0.13758 -0.07408,0.0741 -0.07408,0.20108 v 4.55082 q 0.116416,0.26458 0.116416,0.61383 0,0.33867 0,0.59267 0,0.0847 0,0.21166 0,0.127 -0.01058,0.254 0,0.127 0,0.23283 0,0.0952 0,0.10584 0,0.0212 -0.02117,0.11641 -0.01058,0.0952 -0.03175,0.20109 -0.02117,0.10583 -0.04233,0.20108 -0.01058,0.0952 -0.01058,0.11642 0,0.0212 0.01058,0.11641 0.02117,0.0953 0.03175,0.20108 0.02117,0.10584 0.04233,0.20109 0.02117,0.0952 0.02117,0.11641 0,0.0529 0.01058,0.30692 0.02117,0.24342 0.03175,0.55033 0.02117,0.29633 0.03175,0.59267 0.02117,0.29633 0.03175,0.45508 0.04233,0.96308 0.03175,1.91557 -0.01058,0.94192 0.07408,1.89442 0.05292,0.56091 0.09525,1.09008 0.05292,0.52916 0.08467,1.05833 0.03175,0.51858 0.04233,1.05833 0.01058,0.53974 -0.01058,1.13241 z"
         style="stroke-width:0.264583"
         id="path865" />
      <path
         d="m 69.691151,144.14485 q 0.08467,0.24341 0.296332,0.39158 0.211666,0.14817 0.444499,0.24342 0.04233,0 0.137583,0 0.09525,0 0.201082,0 0.116417,0.0106 0.211666,0.0106 0.09525,0 0.137583,0 0.254,0 0.592665,0 0.338666,0.0106 0.645581,-0.0529 0.306916,-0.0741 0.518582,-0.254 0.211666,-0.17991 0.211666,-0.53974 0,-2.00025 -0.05292,-4.04282 -0.04233,-2.05317 -0.0635,-4.01108 0,-0.10583 -0.01058,-0.30691 -0.01058,-0.21167 -0.02117,-0.46567 -0.01058,-0.26458 -0.02117,-0.53974 -0.01058,-0.27517 -0.02117,-0.51859 -0.01058,-0.24341 -0.02117,-0.43391 0,-0.1905 -0.01058,-0.27517 -0.148166,-1.72508 -0.338666,-3.42899 -0.190499,-1.71449 -0.296332,-3.45015 -0.02117,-0.0318 -0.08467,-0.0953 -0.0635,-0.0635 -0.137582,-0.13758 -0.07408,-0.0741 -0.15875,-0.127 -0.08467,-0.0635 -0.148166,-0.0635 -0.04233,0 -0.201083,0 -0.148166,0 -0.328082,0 -0.179916,0 -0.338666,0 -0.148166,0 -0.190499,0 -0.116416,-0.0106 -0.201083,-0.0423 -0.08467,-0.0318 -0.179916,-0.0741 -0.08467,-0.0423 -0.179916,-0.0741 -0.08467,-0.0318 -0.190499,-0.0318 -0.09525,0 -0.22225,0.0212 -0.126999,0.0212 -0.243416,0.0741 -0.105833,0.0529 -0.190499,0.13758 -0.07408,0.0741 -0.07408,0.20108 v 4.55082 q 0.116416,0.26458 0.116416,0.61383 0,0.33867 0,0.59267 0,0.0847 0,0.21166 0,0.127 -0.01058,0.254 0,0.127 0,0.23283 0,0.0952 0,0.10584 0,0.0212 -0.02117,0.11641 -0.01058,0.0952 -0.03175,0.20109 -0.02117,0.10583 -0.04233,0.20108 -0.01058,0.0952 -0.01058,0.11642 0,0.0212 0.01058,0.11641 0.02117,0.0953 0.03175,0.20108 0.02117,0.10584 0.04233,0.20109 0.02117,0.0952 0.02117,0.11641 0,0.0529 0.01058,0.30692 0.02117,0.24342 0.03175,0.55033 0.02117,0.29633 0.03175,0.59267 0.02117,0.29633 0.03175,0.45508 0.04233,0.96308 0.03175,1.91557 -0.01058,0.94192 0.07408,1.89442 0.05292,0.56091 0.09525,1.09008 0.05292,0.52916 0.08467,1.05833 0.03175,0.51858 0.04233,1.05833 0.01058,0.53974 -0.01058,1.13241 z"
         style="stroke-width:0.264583"
         id="path867" />
      <path
         d="m 74.622964,144.14485 q 0.08467,0.24341 0.296333,0.39158 0.211666,0.14817 0.444498,0.24342 0.04233,0 0.137583,0 0.09525,0 0.201083,0 0.116416,0.0106 0.211666,0.0106 0.09525,0 0.137583,0 0.253999,0 0.592664,0 0.338666,0.0106 0.645582,-0.0529 0.306915,-0.0741 0.518581,-0.254 0.211666,-0.17991 0.211666,-0.53974 0,-2.00025 -0.05292,-4.04282 -0.04233,-2.05317 -0.0635,-4.01108 0,-0.10583 -0.01058,-0.30691 -0.01058,-0.21167 -0.02117,-0.46567 -0.01058,-0.26458 -0.02117,-0.53974 -0.01058,-0.27517 -0.02117,-0.51859 -0.01058,-0.24341 -0.02117,-0.43391 0,-0.1905 -0.01058,-0.27517 -0.148166,-1.72508 -0.338666,-3.42899 -0.190499,-1.71449 -0.296332,-3.45015 -0.02117,-0.0318 -0.08467,-0.0953 -0.0635,-0.0635 -0.137583,-0.13758 -0.07408,-0.0741 -0.15875,-0.127 -0.08467,-0.0635 -0.148166,-0.0635 -0.04233,0 -0.201083,0 -0.148166,0 -0.328082,0 -0.179916,0 -0.338665,0 -0.148167,0 -0.1905,0 -0.116416,-0.0106 -0.201083,-0.0423 -0.08467,-0.0318 -0.179916,-0.0741 -0.08467,-0.0423 -0.179916,-0.0741 -0.08467,-0.0318 -0.190499,-0.0318 -0.09525,0 -0.222249,0.0212 -0.127,0.0212 -0.243416,0.0741 -0.105833,0.0529 -0.1905,0.13758 -0.07408,0.0741 -0.07408,0.20108 v 4.55082 q 0.116416,0.26458 0.116416,0.61383 0,0.33867 0,0.59267 0,0.0847 0,0.21166 0,0.127 -0.01058,0.254 0,0.127 0,0.23283 0,0.0952 0,0.10584 0,0.0212 -0.02117,0.11641 -0.01058,0.0952 -0.03175,0.20109 -0.02117,0.10583 -0.04233,0.20108 -0.01058,0.0952 -0.01058,0.11642 0,0.0212 0.01058,0.11641 0.02117,0.0953 0.03175,0.20108 0.02117,0.10584 0.04233,0.20109 0.02117,0.0952 0.02117,0.11641 0,0.0529 0.01058,0.30692 0.02117,0.24342 0.03175,0.55033 0.02117,0.29633 0.03175,0.59267 0.02117,0.29633 0.03175,0.45508 0.04233,0.96308 0.03175,1.91557 -0.01058,0.94192 0.07408,1.89442 0.05292,0.56091 0.09525,1.09008 0.05292,0.52916 0.08467,1.05833 0.03175,0.51858 0.04233,1.05833 0.01058,0.53974 -0.01058,1.13241 z"
         style="stroke-width:0.264583"
         id="path869" />
    </g>
  </g>
</svg>
